<svg width="200" height="144" viewBox="0 0 200 144" fill="none" xmlns="http://www.w3.org/2000/svg">
<path d="M200 89.6523C200 139.082 148 107.652 100 132.152C52 156.652 0 139.082 0 89.6523C0 40.2229 44.7715 0.152344 100 0.152344C155.228 0.152344 200 40.2229 200 89.6523Z" fill="#AB4100"/>
<path d="M84.496 94.1523C84.496 91.9337 84.7733 89.9497 85.328 88.2003C85.9253 86.451 86.6933 84.8723 87.632 83.4643C88.6133 82.0563 89.68 80.755 90.832 79.5603C92.0267 78.3657 93.2427 77.1923 94.48 76.0403C97.5947 73.139 99.792 70.515 101.072 68.1683C102.395 65.8217 103.056 63.4963 103.056 61.1923C103.056 59.827 102.885 58.5043 102.544 57.2243C102.203 55.9443 101.584 54.899 100.688 54.0883C99.792 53.235 98.5333 52.8297 96.912 52.8723C95.76 52.8723 94.7147 53.1497 93.776 53.7043C92.88 54.2163 92.1973 54.835 91.728 55.5603C92.1973 56.0297 92.5173 56.5843 92.688 57.2243C92.9013 57.8643 93.008 58.419 93.008 58.8883C93.008 59.3577 92.8587 59.9337 92.56 60.6163C92.2613 61.2563 91.792 61.811 91.152 62.2803C90.5547 62.7497 89.7227 62.9843 88.656 62.9843C87.3333 62.899 86.3093 62.4083 85.584 61.5123C84.9013 60.6163 84.56 59.5497 84.56 58.3123C84.56 57.331 84.8587 56.2857 85.456 55.1763C86.0533 54.0243 86.9493 52.9363 88.144 51.9123C89.3387 50.8457 90.7893 49.9923 92.496 49.3523C94.2453 48.6697 96.2507 48.3283 98.512 48.3283C100.219 48.3283 101.904 48.5417 103.568 48.9683C105.275 49.395 106.832 50.0777 108.24 51.0163C109.648 51.955 110.757 53.1923 111.568 54.7283C112.421 56.2643 112.848 58.163 112.848 60.4243C112.848 61.491 112.656 62.6217 112.272 63.8163C111.888 64.9683 111.184 66.2483 110.16 67.6563C109.136 69.0217 107.707 70.6003 105.872 72.3923C104.037 74.1843 101.669 76.275 98.768 78.6643C96.4213 80.5843 94.6933 82.3337 93.584 83.9123C92.4747 85.491 91.8133 86.707 91.6 87.5603L104.144 87.8803C105.125 87.923 105.957 87.859 106.64 87.6883C107.365 87.475 107.92 87.0697 108.304 86.4723C108.731 85.8323 108.944 84.915 108.944 83.7203H113.04L112.528 94.1523H84.496Z" fill="#FFB22C"/>
</svg>
